<?xml version="1.0" standalone="no"?>
<!DOCTYPE svg PUBLIC "-//W3C//DTD SVG 20010904//EN"
 "http://www.w3.org/TR/2001/REC-SVG-20010904/DTD/svg10.dtd">
<svg version="1.0" xmlns="http://www.w3.org/2000/svg"
 width="512.000000pt" height="512.000000pt" viewBox="0 0 512.000000 512.000000"
 preserveAspectRatio="xMidYMid meet">

<g transform="translate(0.000000,512.000000) scale(0.100000,-0.100000)"
fill="#000000" stroke="none">
<path d="M90 5098 c-33 -17 -51 -35 -67 -68 l-23 -44 0 -2426 0 -2426 22 -44
c17 -33 35 -51 68 -67 l44 -23 2426 0 2426 0 44 23 c33 16 51 34 68 67 l22 44
0 2426 0 2426 -22 44 c-17 33 -35 51 -68 68 l-44 22 -2426 0 -2426 0 -44 -22z
m1560 -1749 c153 -38 348 -157 384 -234 32 -67 10 -139 -58 -189 -20 -15 -43
-21 -81 -21 -44 0 -60 5 -97 33 -114 85 -198 119 -320 129 -156 12 -304 -42
-415 -153 -201 -202 -201 -505 1 -707 190 -190 481 -208 705 -44 36 26 80 50
98 53 125 23 218 -93 169 -211 -31 -73 -233 -195 -391 -236 -112 -29 -299 -29
-410 0 -312 82 -542 318 -610 626 -27 120 -17 302 22 417 87 254 290 449 550
528 141 43 304 46 453 9z m1010 -198 c20 -10 44 -36 57 -61 21 -40 23 -56 23
-212 l0 -168 173 0 c149 0 177 -3 207 -19 38 -20 80 -88 80 -131 0 -43 -42
-111 -80 -131 -30 -16 -58 -19 -207 -19 l-173 0 0 -168 c0 -156 -2 -172 -23
-212 -30 -57 -76 -82 -143 -77 -56 4 -92 26 -121 72 -15 25 -18 57 -21 208
l-4 177 -170 0 c-157 0 -173 2 -209 22 -41 23 -79 84 -79 128 0 44 38 105 79
128 36 20 52 22 210 22 l171 0 0 158 c0 86 5 173 10 193 11 38 51 86 85 100
35 14 99 10 135 -10z m1317 -1 c62 -38 67 -55 73 -255 l5 -180 180 -5 c152 -4
185 -8 208 -23 89 -58 89 -196 0 -254 -23 -15 -56 -19 -208 -23 l-180 -5 -5
-180 c-4 -152 -8 -185 -23 -208 -62 -95 -209 -87 -259 13 -15 29 -18 63 -18
208 l0 172 -172 0 c-191 0 -221 7 -262 63 -29 40 -29 134 0 174 41 56 71 63
262 63 l172 0 0 173 c0 194 8 223 69 264 43 29 113 31 158 3z"/>
</g>
</svg>
