<?xml version="1.0" standalone="no"?>
<!DOCTYPE svg PUBLIC "-//W3C//DTD SVG 20010904//EN"
 "http://www.w3.org/TR/2001/REC-SVG-20010904/DTD/svg10.dtd">
<svg version="1.0" xmlns="http://www.w3.org/2000/svg"
 width="512.000000pt" height="512.000000pt" viewBox="0 0 512.000000 512.000000"
 preserveAspectRatio="xMidYMid meet">

<g transform="translate(0.000000,512.000000) scale(0.100000,-0.100000)"
fill="#000000" stroke="none">
<path d="M1795 4424 c-285 -51 -699 -209 -998 -381 -88 -51 -91 -56 -206 -316
-197 -447 -316 -830 -451 -1452 -70 -324 -140 -731 -140 -816 0 -82 356 -368
626 -503 257 -129 614 -238 886 -271 54 -7 59 -6 85 21 16 16 75 109 132 207
98 169 105 178 130 173 14 -3 80 -13 146 -21 370 -46 757 -46 1115 2 69 9 135
17 148 17 19 1 39 -28 131 -184 60 -101 120 -193 134 -204 25 -18 29 -19 139
-2 252 39 566 136 793 246 208 100 452 275 599 429 l58 62 -7 77 c-25 276
-175 1000 -291 1406 -97 338 -253 746 -389 1016 -33 65 -38 70 -124 120 -282
161 -684 313 -976 369 -197 39 -215 29 -236 -118 l-13 -92 -146 8 c-186 10
-584 10 -767 0 l-141 -8 -13 93 c-19 143 -40 155 -224 122z m68 -161 c3 -5 7
-26 8 -48 4 -37 2 -40 -31 -49 -252 -67 -515 -176 -717 -297 -109 -66 -143
-99 -143 -138 0 -38 38 -81 73 -81 13 0 63 26 112 57 193 122 488 246 735 308
144 36 321 49 660 49 429 0 563 -14 796 -88 233 -73 410 -152 586 -262 57 -35
113 -64 126 -64 55 0 91 79 57 127 -23 32 -180 127 -340 204 -117 57 -448 178
-520 191 -17 3 -19 10 -17 43 2 22 7 44 11 48 13 13 232 -40 390 -95 187 -65
322 -122 493 -210 l136 -71 47 -99 c123 -262 243 -574 324 -842 105 -349 233
-930 292 -1321 l20 -140 -48 -43 c-343 -306 -673 -467 -1165 -569 -111 -23
-131 -25 -139 -12 -5 8 -42 71 -83 140 l-74 127 62 17 c268 74 608 251 775
401 51 46 61 61 61 87 -1 39 -18 63 -53 76 -35 14 -50 7 -127 -54 -242 -195
-582 -345 -920 -404 -555 -99 -1235 -72 -1655 66 -255 83 -478 199 -654 342
-72 58 -110 65 -148 29 -37 -35 -31 -83 15 -125 165 -153 440 -304 719 -395
73 -24 133 -46 133 -50 0 -3 -34 -66 -77 -138 l-76 -132 -51 6 c-90 12 -327
73 -466 121 -298 102 -552 253 -753 447 l-75 73 19 125 c62 414 198 1024 303
1362 84 270 195 559 308 799 l50 106 136 71 c242 124 538 237 752 286 119 28
127 29 133 19z"/>
<path d="M1679 2807 c-167 -57 -282 -207 -311 -407 -23 -154 33 -323 144 -434
175 -174 423 -174 595 0 100 101 144 216 145 371 1 331 -287 567 -573 470z
m213 -153 c170 -57 252 -300 165 -486 -70 -152 -235 -216 -367 -142 -105 59
-164 169 -164 304 0 231 178 389 366 324z"/>
<path d="M3179 2808 c-391 -137 -420 -747 -46 -931 255 -124 547 42 612 349
18 87 18 131 0 217 -32 155 -131 285 -261 347 -94 45 -208 52 -305 18z m217
-155 c68 -23 144 -101 174 -178 29 -76 32 -197 7 -270 -26 -77 -83 -145 -150
-179 -176 -90 -365 28 -396 246 -36 252 156 452 365 381z"/>
</g>
</svg>
