<?xml version="1.0" standalone="no"?>
<!DOCTYPE svg PUBLIC "-//W3C//DTD SVG 20010904//EN"
 "http://www.w3.org/TR/2001/REC-SVG-20010904/DTD/svg10.dtd">
<svg version="1.0" xmlns="http://www.w3.org/2000/svg"
 width="512.000000pt" height="512.000000pt" viewBox="0 0 512.000000 512.000000"
 preserveAspectRatio="xMidYMid meet">

<g transform="translate(0.000000,512.000000) scale(0.100000,-0.100000)"
fill="#000000" stroke="none">
<path d="M2525 5108 c-44 -24 -45 -30 -45 -304 l0 -262 -67 -7 c-488 -44 -902
-233 -1242 -568 -343 -338 -541 -764 -586 -1259 l-7 -68 -259 0 c-148 0 -268
-4 -278 -10 -10 -5 -24 -23 -31 -40 -15 -35 0 -84 31 -100 10 -6 130 -10 278
-10 l259 0 7 -67 c45 -496 243 -922 586 -1260 340 -335 754 -524 1242 -568
l67 -7 0 -259 c0 -148 4 -268 10 -278 5 -10 23 -24 40 -31 35 -15 84 0 100 31
6 10 10 130 10 278 l0 259 68 7 c487 44 901 233 1241 568 343 338 541 764 586
1260 l7 67 259 0 c148 0 268 4 278 10 31 16 46 65 31 100 -7 17 -21 35 -31 40
-10 6 -130 10 -278 10 l-259 0 -7 68 c-45 495 -243 921 -586 1259 -340 335
-754 524 -1241 568 l-68 7 0 258 c0 142 -3 266 -6 275 -7 17 -54 45 -76 45 -7
0 -22 -6 -33 -12z m-45 -998 l0 -261 25 -24 c15 -16 36 -25 55 -25 19 0 40 9
55 25 l25 24 0 262 0 262 84 -6 c275 -22 571 -122 806 -275 233 -151 401 -317
553 -547 159 -241 262 -540 284 -821 l6 -84 -262 0 -262 0 -24 -25 c-16 -15
-25 -36 -25 -55 0 -19 9 -40 25 -55 l24 -25 262 0 262 0 -6 -84 c-43 -547
-352 -1054 -837 -1368 -235 -153 -531 -253 -806 -275 l-84 -6 0 262 0 262 -25
24 c-32 33 -78 33 -110 0 l-25 -24 0 -262 0 -262 -84 6 c-275 22 -571 122
-806 275 -233 151 -401 317 -553 547 -159 241 -262 540 -284 821 l-6 84 262 0
262 0 24 25 c33 32 33 78 0 110 l-24 25 -262 0 -262 0 6 84 c45 578 392 1114
918 1418 216 125 544 223 757 227 l52 1 0 -260z"/>
<path d="M2465 3464 c-303 -45 -537 -195 -683 -437 -144 -239 -168 -549 -62
-809 140 -344 466 -562 840 -562 431 0 788 286 886 710 24 103 24 291 0 389
-85 350 -341 608 -686 690 -67 15 -242 27 -295 19z m317 -196 c237 -77 415
-259 490 -498 20 -64 23 -95 22 -215 0 -124 -3 -149 -27 -220 -78 -232 -250
-404 -482 -482 -72 -24 -94 -27 -225 -27 -129 0 -153 3 -222 26 -239 80 -416
259 -490 498 -33 108 -33 312 0 420 82 264 285 452 557 516 94 22 281 13 377
-18z"/>
<path d="M2505 2865 c-23 -22 -25 -31 -25 -125 l0 -100 -100 0 c-94 0 -103 -2
-125 -25 -16 -15 -25 -36 -25 -55 0 -19 9 -40 25 -55 22 -23 31 -25 125 -25
l100 0 0 -100 c0 -94 2 -103 25 -125 15 -16 36 -25 55 -25 19 0 40 9 55 25 23
22 25 31 25 125 l0 100 100 0 c94 0 103 2 125 25 33 32 33 78 0 110 -22 23
-31 25 -125 25 l-100 0 0 100 c0 94 -2 103 -25 125 -15 16 -36 25 -55 25 -19
0 -40 -9 -55 -25z"/>
</g>
</svg>
