<?xml version="1.0" encoding="UTF-8"?>
<svg version="1.1" xmlns="http://www.w3.org/2000/svg" width="512" height="512">
<path d="M0 0 C168.96 0 337.92 0 512 0 C512 6.5882445 511.9779116 12.86836633 511.36248112 19.37461376 C511.25909553 20.53224183 511.25909553 20.53224183 511.15362135 21.71325633 C510.92382835 24.27284148 510.6870336 26.83172726 510.45021057 29.39067078 C510.28138454 31.25470964 510.11299365 33.11878796 509.9449982 34.98290187 C509.48391597 40.08512597 509.01667522 45.18676989 508.54839647 50.28833783 C508.043761 55.79790715 507.54486778 61.30799681 507.04525757 66.81802368 C506.06641574 77.6033508 505.08231782 88.38819216 504.09647603 99.17288145 C502.94859612 111.7325922 501.80610508 124.29279138 500.66387974 136.85301743 C498.62585679 159.26183247 496.5832175 181.67022432 494.5378418 204.07836914 C492.55304419 225.82288583 490.57109383 247.56765939 488.5925293 269.31274414 C488.53155607 269.98285206 488.47058284 270.65295998 488.40776194 271.34337421 C488.10064523 274.71865295 487.7935329 278.09393209 487.48642158 281.46921133 C487.39551305 282.46833145 487.39551305 282.46833145 487.30276799 283.48763581 C487.18055663 284.83079104 487.05834623 286.17394635 486.93613679 287.51710176 C484.98952029 308.91141581 483.0406807 330.3055274 481.09134616 351.69959396 C480.52092366 357.96007527 479.95059579 364.22056518 479.38048673 370.48107505 C478.18180561 383.6439056 476.98238985 396.80666834 475.78053994 409.96920999 C475.2835682 415.41210905 474.78700631 420.85504462 474.29159737 426.29808617 C473.83812734 431.28012843 473.383406 436.26205483 472.9276787 441.2438911 C472.76299742 443.04647664 472.59876665 444.8491034 472.435031 446.65177508 C472.21238151 449.10226851 471.98807641 451.55260504 471.76336002 454.00290966 C471.70020887 454.70230902 471.63705772 455.40170839 471.5719929 456.12230167 C471.14398058 460.76337518 470.59719942 465.37839308 470 470 C463.22400963 471.3700455 456.44796164 472.73980575 449.671875 474.109375 C448.60870119 474.32426197 447.54552738 474.53914894 446.45013618 474.76054764 C433.29899378 477.41843533 420.14737624 480.07395151 406.99487305 482.72509766 C405.75865424 482.97428766 404.52243544 483.22347767 403.24875546 483.48021889 C398.17204191 484.50351035 393.09531785 485.52674954 388.01854515 486.54974747 C372.86139195 489.60412368 357.70573431 492.66565654 342.55304146 495.74208832 C333.27063431 497.62640252 323.98692264 499.50418853 314.70219231 501.37702179 C309.22689364 502.48176955 303.75234621 503.58997936 298.27941895 504.7064209 C293.14596273 505.75354535 288.01075845 506.79161591 282.87408257 507.82282639 C281.00154091 508.2004184 279.12966117 508.5813111 277.25853157 508.96583939 C274.70247878 509.49063417 272.14426953 510.0033086 269.58520508 510.51318359 C268.49302485 510.74193491 268.49302485 510.74193491 267.37878036 510.97530746 C258.77377636 512.65881248 250.58799371 512.22294593 242.04177856 510.45021057 C241.19892835 510.28349049 240.35607813 510.11677041 239.48768699 509.9449982 C236.69317543 509.38982727 233.90161781 508.82105653 231.10986328 508.25219727 C229.09536422 507.84906047 227.08069572 507.44676959 225.06587219 507.04525757 C219.6162603 505.95675905 214.16910119 504.85641674 208.72232294 503.75383878 C203.0174062 502.60106591 197.31032865 501.45909114 191.60348511 500.31590271 C182.02768228 498.39615174 172.45329108 496.4694971 162.87988281 494.5378418 C149.37248229 491.81241725 135.86269606 489.09897451 122.3523562 486.38816369 C104.26077904 482.75755676 86.16993468 479.12325394 68.08179283 475.47556686 C66.12265844 475.08059474 64.16346167 474.68593187 62.20419884 474.29159737 C59.53472265 473.7542258 56.8654876 473.21567292 54.19631958 472.67677307 C53.41714774 472.52015703 52.6379759 472.36354099 51.8351928 472.20217901 C48.53668369 471.53495949 45.26045227 470.83272989 42 470 C37.10516411 419.28878003 32.45322252 368.55608441 27.83149964 317.81935441 C27.33856172 312.40854861 26.84535647 306.99776718 26.3521843 301.58698273 C24.7090094 283.55797957 23.06642679 265.52892262 21.42576027 247.49969101 C21.00601175 242.88716347 20.58626194 238.27463605 20.16650391 233.66210938 C20.06223478 232.51633794 19.95796566 231.3705665 19.85053687 230.19007471 C18.14720451 211.47413507 16.43955693 192.75859169 14.73019226 174.04320213 C12.96346956 154.69906976 11.20047121 135.35460083 9.44116437 116.00979257 C8.45779582 105.19796995 7.47282429 94.38629878 6.48366165 83.57500458 C5.64565291 74.41565512 4.81101969 65.25600605 3.98080833 56.0959464 C3.55797109 51.43174826 3.13354165 46.76770974 2.70476532 42.1040535 C2.31213481 37.833129 1.92412494 33.56181025 1.53971712 29.29013804 C1.40030999 27.74995515 1.2592435 26.20992131 1.11630102 24.67006251 C0.92140154 22.56777304 0.73272312 20.46500828 0.54546547 18.36202621 C0.43935845 17.19739971 0.33325143 16.0327732 0.22392905 14.83285499 C-0.06447483 9.8964242 0 4.9448484 0 0 Z M47 43 C50.98022937 89.29933483 50.98022937 89.29933483 55.0872997 135.58701551 C55.37324574 138.75412756 55.65829903 141.92131979 55.94338676 145.08850919 C56.95330251 156.30792506 57.96648146 167.52704523 58.98046875 178.74609375 C59.0607476 179.63442041 59.14102645 180.52274707 59.22373798 181.43799272 C60.82785953 199.18821198 62.43326474 216.93831497 64.04157543 234.68815517 C64.3893079 238.52606986 64.73702278 242.36398613 65.0847168 246.2019043 C65.17108311 247.15522115 65.25744943 248.10853801 65.3464329 249.09074325 C66.75989243 264.69473709 68.16648889 280.29934233 69.57053419 295.90418576 C71.02205482 312.03528183 72.47999602 328.16578766 73.94418603 344.29573876 C74.76231946 353.31041851 75.57757845 362.3253382 76.38548851 371.34094048 C77.06918104 378.97030935 77.75858578 386.59913375 78.45565697 394.22729241 C78.8106628 398.11417859 79.16284653 402.00126773 79.50761795 405.88907623 C79.88059216 410.0940767 80.26671082 414.29776378 80.65422058 418.50144958 C80.76171275 419.73716105 80.86920492 420.97287252 80.97995442 422.24602979 C81.08535489 423.36575495 81.19075536 424.4854801 81.29934978 425.63913631 C81.38701286 426.60901861 81.47467594 427.57890091 81.56499547 428.57817358 C81.87875602 431.25023832 81.87875602 431.25023832 84 434 C86.9928811 434.99529038 86.9928811 434.99529038 90.63380432 435.65826416 C91.32336698 435.80037378 92.01292964 435.9424834 92.72338814 436.08889937 C95.04323638 436.5637397 97.36627054 437.02055598 99.68969727 437.47753906 C101.35045498 437.81353974 103.01099834 438.15060147 104.67134094 438.48864746 C109.19003202 439.40512438 113.71176641 440.30565468 118.23434949 441.20270252 C122.00988952 441.95315936 125.78381436 442.71156113 129.55774635 443.4700563 C138.46573848 445.26038335 147.37617827 447.03812161 156.28833008 448.80761719 C165.47541328 450.63187835 174.658604 452.47480776 183.83999592 454.32748246 C191.72434485 455.91787917 199.61075262 457.49774023 207.49894184 459.06897902 C212.20920739 460.00724587 216.91865822 460.94917988 221.62625313 461.90076447 C226.05860083 462.7961327 230.49339345 463.67821951 234.93037224 464.55033875 C236.55459799 464.87181393 238.17793325 465.19782822 239.80024719 465.52881622 C251.34598091 467.92687216 251.34598091 467.92687216 263 467 C264.12057014 466.79459343 265.24114027 466.58918686 266.39566708 466.37755585 C270.65113707 465.59559479 274.89325348 464.75028067 279.13647461 463.90478516 C280.76009511 463.58409711 282.38377432 463.26370616 284.00750732 462.94358826 C288.39411444 462.0775538 292.77970217 461.20646593 297.16498256 460.33374071 C299.90521024 459.78849213 302.64560515 459.24409169 305.38604927 458.6999321 C313.96282756 456.99656515 322.53896037 455.28999936 331.11420816 453.57894385 C341.01119082 451.60420432 350.91023466 449.6402521 360.81117433 447.68545115 C368.47168127 446.1723144 376.1302549 444.64964802 383.78741843 443.11968267 C388.35920653 442.20642578 392.93172473 441.29729197 397.50629997 440.39809036 C401.80049455 439.55373438 406.09217547 438.6976282 410.38218689 437.8322773 C411.95917587 437.51631576 413.53703347 437.2046556 415.11577034 436.89754677 C417.26501126 436.47878372 419.41062715 436.04485185 421.55601501 435.60684204 C422.7592488 435.36755289 423.96248259 435.12826374 425.202178 434.8817234 C428.30193825 434.22617682 428.30193825 434.22617682 430 431 C430.52692072 428.047986 430.52692072 428.047986 430.79270363 424.60813808 C430.8541044 423.9535635 430.91550516 423.29898892 430.97876656 422.62457874 C431.18375235 420.41659906 431.37642751 418.20771519 431.56924438 415.99864197 C431.71460686 414.40523833 431.86072163 412.81190317 432.00752676 411.2186318 C432.40978485 406.82893736 432.80130562 402.43834034 433.19113588 398.04752719 C433.61301032 393.31687537 434.04474686 388.58712277 434.47529602 383.85725403 C435.317574 374.58716759 436.15077699 365.3162865 436.98108484 356.04512113 C437.94756401 345.2580103 438.92354565 334.47176579 439.90009587 323.6855628 C441.64167093 304.44650093 443.37545368 285.20674501 445.10449219 265.96655273 C446.78394245 247.27832221 448.46748436 228.59046729 450.15625 209.90307617 C450.2602694 208.75201486 450.3642888 207.60095354 450.4714603 206.41501158 C450.88953111 201.78887041 451.3076251 197.16273133 451.7257512 192.53659516 C454.92802517 157.10576508 458.12671614 121.67460608 461.31253624 86.2422924 C461.64755784 82.5164746 461.98298486 78.79069365 462.31877708 75.06494522 C462.70438228 70.78623712 463.08914452 66.50745411 463.47320156 62.22860677 C463.61280616 60.67480764 463.75271226 59.12103557 463.89293869 57.56729244 C464.08244329 55.46694163 464.27085894 53.36649601 464.45897865 51.26602077 C464.5642162 50.09583005 464.66945375 48.92563933 464.77788031 47.71998829 C465.02713036 45.12261302 465.02713036 45.12261302 465 43 C327.06 43 189.12 43 47 43 Z " fill="#000000" transform="translate(0,0)"/>
<path d="M0 0 C46.86 0 93.72 0 142 0 C140.83312422 19.83688833 140.83312422 19.83688833 140 28.8125 C139.9175 29.75158203 139.835 30.69066406 139.75 31.65820312 C139.6675 32.56119141 139.585 33.46417969 139.5 34.39453125 C139.4278125 35.18706299 139.355625 35.97959473 139.28125 36.79614258 C139 39 139 39 138 43 C106.65 43 75.3 43 43 43 C43 77.98 43 112.96 43 149 C71.05 149 99.1 149 128 149 C128 162.5 128 162.5 127.46850586 168.25152588 C127.3507077 169.55538742 127.23290955 170.85924896 127.11154175 172.20262146 C126.97941196 173.6041662 126.84717583 175.00570091 126.71484375 176.40722656 C126.57644597 177.91632369 126.43853061 179.42546511 126.30105591 180.93464661 C125.92990742 184.99418449 125.55209123 189.05307626 125.17299271 193.1118784 C124.77667526 197.36757881 124.38660674 201.62385202 123.99584961 205.88006592 C123.25649083 213.9230408 122.51158647 221.96549182 121.76464367 230.00776553 C120.9138919 239.17071116 120.06939196 248.33422967 119.2253933 257.4977994 C117.49050696 276.33250797 115.74784683 295.16648996 114 314 C99.72780284 316.87312617 85.45471672 319.74179841 71.18059158 322.60533142 C64.55291493 323.9349921 57.92553363 325.26609299 51.29882812 326.60058594 C44.90642905 327.8878898 38.51323164 329.17117828 32.11952972 330.45199585 C29.67757076 330.94186838 27.23588349 331.43309724 24.79447174 331.9256897 C21.38093818 332.6141842 17.96647966 333.29789599 14.55175781 333.98046875 C13.53755768 334.186185 12.52335754 334.39190125 11.47842407 334.60385132 C10.54736847 334.78896271 9.61631287 334.9740741 8.65704346 335.16479492 C7.44580748 335.40814827 7.44580748 335.40814827 6.21010208 335.65641785 C4 336 4 336 0 336 C0 321.48 0 306.96 0 292 C4.31996753 290.56001082 8.19693112 289.46122711 12.61621094 288.57958984 C13.2478566 288.45250137 13.87950226 288.3254129 14.5302887 288.19447327 C16.59758726 287.7795435 18.66593246 287.37012298 20.734375 286.9609375 C22.17838051 286.67261371 23.62232906 286.38400455 25.06622314 286.09512329 C28.08160259 285.492671 31.09747889 284.89279503 34.11376953 284.29492188 C37.98390455 283.52771629 41.85299757 282.75540113 45.72176743 281.98134422 C48.69821641 281.38616301 51.67506154 280.79298455 54.6520462 280.20048904 C56.07952318 279.91626764 57.50690707 279.63157834 58.93419647 279.34641647 C60.92286765 278.94954691 62.91210417 278.55551336 64.90136719 278.16162109 C66.03354675 277.9367099 67.16572632 277.71179871 68.33221436 277.48007202 C71 277 71 277 73 277 C73.0471666 276.33428482 73.09433319 275.66856964 73.14292908 274.98268127 C74.34238093 258.16430945 75.7025674 241.36600801 77.23217773 224.57446289 C77.57019493 220.85277615 77.90137234 217.13051544 78.23242188 213.40820312 C78.44750841 211.03121302 78.66298717 208.65425837 78.87890625 206.27734375 C78.97683975 205.16930893 79.07477325 204.06127411 79.17567444 202.91966248 C79.26924728 201.90581985 79.36282013 200.89197723 79.45922852 199.84741211 C79.53979996 198.95622177 79.6203714 198.06503143 79.7033844 197.14683533 C80 195 80 195 81 193 C54.27 193 27.54 193 0 193 C0 129.31 0 65.62 0 0 Z " fill="#000000" transform="translate(277,85)"/>
<path d="M0 0 C14.19 0 28.38 0 43 0 C43 110.88 43 221.76 43 336 C32.875 334.875 32.875 334.875 28.9315033 334.08250427 C28.03564514 333.90443237 27.13978699 333.72636047 26.21678162 333.54289246 C25.26731155 333.35012222 24.31784149 333.15735199 23.33959961 332.95874023 C22.31416046 332.75376923 21.28872131 332.54879822 20.23220825 332.33761597 C16.87151027 331.6649228 13.51193301 330.98680044 10.15234375 330.30859375 C7.81114842 329.8388613 5.46988455 329.36947037 3.1285553 328.90040588 C-3.01231524 327.66918769 -9.15224732 326.43335083 -15.29199219 325.1965332 C-21.5658435 323.93355705 -27.84057586 322.67497416 -34.11523438 321.41601562 C-46.41101982 318.948297 -58.7058484 316.47584487 -71 314 C-71.91429789 304.14279144 -72.82712347 294.28544777 -73.73806 284.42792797 C-74.16107226 279.85089146 -74.58459507 275.27390337 -75.00927734 270.69702148 C-75.41895795 266.28161258 -75.82730703 261.86608239 -76.23472595 257.45046425 C-76.39054261 255.76429145 -76.54684224 254.07816322 -76.70362854 252.39208031 C-76.92283134 250.03388192 -77.14032972 247.67553217 -77.35742188 245.31713867 C-77.42287704 244.61726837 -77.48833221 243.91739807 -77.55577087 243.19631958 C-77.80712901 240.44968878 -78 237.76018016 -78 235 C-63.48 235 -48.96 235 -34 235 C-32.68545679 244.85907406 -31.54467688 254.54055393 -30.875 264.4375 C-30.78863281 265.65759766 -30.70226562 266.87769531 -30.61328125 268.13476562 C-30.4047061 271.08958021 -30.20031045 274.0446157 -30 277 C-29.19780029 277.14622803 -28.39560059 277.29245605 -27.5690918 277.44311523 C-23.94148072 278.1056674 -20.31448754 278.77154326 -16.6875 279.4375 C-15.42486328 279.66759766 -14.16222656 279.89769531 -12.86132812 280.13476562 C-11.04858398 280.46831055 -11.04858398 280.46831055 -9.19921875 280.80859375 C-8.08377686 281.01282959 -6.96833496 281.21706543 -5.8190918 281.42749023 C-3 282 -3 282 0 283 C0 189.61 0 96.22 0 0 Z " fill="#000000" transform="translate(192,85)"/>
</svg>
