<?xml version="1.0" standalone="no"?>
<!DOCTYPE svg PUBLIC "-//W3C//DTD SVG 20010904//EN"
 "http://www.w3.org/TR/2001/REC-SVG-20010904/DTD/svg10.dtd">
<svg version="1.0" xmlns="http://www.w3.org/2000/svg"
 width="512.000000pt" height="512.000000pt" viewBox="0 0 512.000000 512.000000"
 preserveAspectRatio="xMidYMid meet">

<g transform="translate(0.000000,512.000000) scale(0.100000,-0.100000)"
fill="#000000" stroke="none">
<path d="M2320 5109 c-198 -19 -451 -76 -635 -143 -124 -46 -375 -168 -475
-232 -321 -204 -619 -502 -824 -824 -77 -121 -201 -384 -250 -530 -83 -247
-123 -468 -133 -736 l-6 -171 667 -223 666 -222 73 74 c153 157 365 235 567
210 54 -7 78 -7 86 2 10 9 393 562 490 706 l31 45 -10 89 c-20 173 23 359 117
511 56 88 180 209 272 263 146 87 331 125 498 104 509 -64 825 -569 660 -1054
-111 -329 -424 -543 -780 -537 l-92 2 -351 -287 c-192 -157 -352 -290 -355
-294 -3 -5 2 -46 10 -93 75 -414 -237 -791 -656 -792 -184 0 -343 65 -470 193
-130 131 -187 257 -198 439 l-7 106 -515 172 c-283 95 -549 183 -591 196 l-77
24 30 -111 c118 -439 260 -731 509 -1041 676 -842 1820 -1168 2840 -809 133
47 380 165 489 234 330 209 627 504 834 830 63 98 185 349 231 475 48 128 108
366 131 520 22 148 26 531 6 670 -83 581 -315 1059 -712 1469 -203 210 -416
365 -685 501 -429 218 -912 309 -1385 264z m515 -250 c796 -94 1502 -610 1833
-1343 139 -308 205 -615 205 -956 0 -190 -11 -300 -50 -485 -185 -887 -914
-1609 -1803 -1784 -179 -35 -269 -44 -455 -43 -371 0 -688 73 -1022 237 -463
227 -825 587 -1053 1047 -37 75 -72 150 -78 166 l-10 30 291 -97 290 -97 13
-65 c34 -167 115 -318 237 -446 136 -142 287 -226 477 -265 122 -26 306 -20
420 12 170 48 361 170 460 294 144 179 209 360 213 592 l2 111 250 204 c138
113 256 208 261 212 6 3 61 11 122 17 247 23 455 116 626 279 335 321 420 804
214 1215 -54 108 -89 157 -181 253 -264 275 -651 382 -1018 282 -174 -47 -391
-182 -501 -311 -167 -196 -245 -398 -255 -658 l-6 -145 -190 -276 -189 -276
-97 -6 c-53 -3 -132 -15 -176 -26 -104 -27 -263 -106 -343 -171 l-63 -51 -504
168 -505 168 0 60 c0 151 64 460 135 650 376 1011 1383 1629 2450 1504z"/>
<path d="M3233 3765 c-143 -31 -293 -144 -360 -270 -115 -218 -79 -478 88
-646 220 -220 557 -222 775 -5 220 219 220 554 0 771 -83 82 -145 118 -252
145 -88 23 -162 24 -251 5z m270 -273 c66 -37 120 -108 142 -185 20 -71 14
-128 -19 -202 -33 -72 -69 -110 -138 -144 -50 -25 -74 -31 -128 -31 -97 0
-155 23 -221 89 -85 86 -112 200 -73 314 19 57 92 141 148 169 85 43 201 39
289 -10z"/>
<path d="M2147 1808 c-85 -52 -98 -64 -92 -82 17 -56 17 -98 1 -141 -19 -48
-72 -101 -111 -111 -28 -7 -112 -1 -136 10 -13 6 -29 -12 -72 -81 -79 -126
-79 -119 -13 -149 69 -32 180 -42 257 -24 218 51 363 263 328 480 -10 62 -45
160 -58 160 -3 0 -50 -28 -104 -62z"/>
</g>
</svg>
